<svg
    xmlns="http://www.w3.org/2000/svg"
    class="icon"
    fill="#9e219eff"
    viewBox="0 0 1024 1024"
    width="22px"
    height="22px"
    version="1.1"
>
    <g id="SVGRepo_bgCarrier" stroke-width="0" />
    <g id="SVGRepo_tracerCarrier" stroke-linecap="round" stroke-linejoin="round" />
    <g id="SVGRepo_iconCarrier">
    <path
        fill="#07081d"
        d="M 700.6 188.2 c -58.4 0 -110.4 31.3 -144.2 80.1 c -21.4 -32.7 -55.3 -53.9 -93.6 -53.9 c -58 0 -106.1 48.5 -115.4 112 h -44.9 c -68.5 0 -123.9 63.7 -123.9 142.3 c 0 78.6 55.5 142.3 123.9 142.3 h 398.1 c 101.7 0 184.1 -94.6 184.1 -211.3 c 0 -116.9 -82.4 -211.5 -184.1 -211.5 Z"
    />
    <path
        fill="#9e219eff"
        d="M 700.6 164.7 c -54.6 0 -106 24.6 -144.2 68.2 c -25.3 -27 -58.3 -42 -93.6 -42 c -61.6 0 -114.6 46.1 -131.9 112 h -28.4 c -79.8 0 -144.7 74.4 -144.7 165.8 s 64.9 165.7 144.7 165.7 h 398.1 c 113 0 204.9 -105.3 204.9 -234.8 c 0 -129.6 -91.9 -234.9 -204.9 -234.9 Z m 0 422.7 H 302.5 c -56.9 0 -103.2 -53.3 -103.2 -118.8 s 46.3 -118.8 103.2 -118.8 h 44.9 c 10.2 0 18.8 -8.3 20.5 -19.6 c 7.8 -53.5 47.8 -92.4 94.9 -92.4 c 30.5 0 58.5 16.2 76.9 44.4 c 3.9 5.9 9.9 9.4 16.4 9.5 c 6.1 0 12.6 -3.2 16.6 -9 c 31.3 -45.2 77.8 -71.1 127.8 -71.1 c 90.1 0 163.4 84.3 163.4 187.9 c 0.1 103.6 -73.2 187.9 -163.3 187.9 Z M 286.9 688.4 L 163.8 829.3 c -8.1 9.2 -8 24.1 0.2 33.2 c 4 4.5 9.3 6.8 14.6 6.8 c 5.4 0 10.7 -2.3 14.8 -7 l 123.1 -140.9 c 8.1 -9.2 8 -24.1 -0.2 -33.2 c -8.2 -9.2 -21.4 -9.1 -29.4 0.2 Z M 478.2 688.2 c -8.2 -9.1 -21.3 -9 -29.4 0.2 l -61.5 70.4 c -8.1 9.2 -8 24.1 0.2 33.2 c 4 4.5 9.3 6.8 14.6 6.8 c 5.4 0 10.7 -2.3 14.8 -7 l 61.5 -70.4 c 8.1 -9.3 8 -24.1 -0.2 -33.2 Z M 775.3 688.4 l -61.5 70.4 c -8.1 9.2 -8 24.1 0.2 33.2 c 4 4.5 9.3 6.8 14.6 6.8 c 5.4 0 10.7 -2.3 14.8 -7 l 61.5 -70.4 c 8.1 -9.2 8 -24.1 -0.2 -33.2 c -8.2 -9.2 -21.3 -9.1 -29.4 0.2 Z M 613.5 688.4 L 490.4 829.3 c -8.1 9.2 -8 24.1 0.2 33.2 c 4 4.5 9.3 6.8 14.6 6.8 c 5.4 0 10.7 -2.3 14.8 -7 l 123 -140.9 c 8.1 -9.2 8 -24.1 -0.2 -33.2 c -8.1 -9.2 -21.3 -9.1 -29.3 0.2 Z"
    />
    </g>
</svg>