<svg
    xmlns="http://www.w3.org/2000/svg"
    fill="none"
    viewBox="0 0 24 24"
    width="16px"
    height="16px"
>
    <g id="SVGRepo_bgCarrier" stroke-width="0" />
    <g id="SVGRepo_tracerCarrier" stroke-linecap="round" stroke-linejoin="round" />
    <g id="SVGRepo_iconCarrier">
    <path
        stroke="#9e219eff"
        stroke-linecap="round"
        stroke-width="1.5"
        d="M 3 8 H 5 M 7 5.85714 V 5.5 C 7 4.11929 8.11929 3 9.5 3 C 10.8807 3 12 4.11929 12 5.5 C 12 6.88071 10.8807 8 9.5 8 H 8"
    />
    <path
        stroke="#9e219eff"
        stroke-linecap="round"
        stroke-width="1.5"
        d="M 4 14 H 5 M 15 17 V 17.5 C 15 19.433 16.567 21 18.5 21 C 20.433 21 22 19.433 22 17.5 C 22 15.567 20.433 14 18.5 14 H 9"
    />
    <path
        stroke="#9e219eff"
        stroke-linecap="round"
        stroke-width="1.5"
        d="M 2 11 H 8 M 15 8 V 7.5 C 15 5.567 16.567 4 18.5 4 C 20.433 4 22 5.567 22 7.5 C 22 9.433 20.433 11 18.5 11 H 12.25"
    />
    </g>
</svg>